<?xml version="1.0" encoding="utf-8"?>
<!-- Svg Vector Icons : http://www.onlinewebfonts.com/icon -->
<!DOCTYPE svg PUBLIC "-//W3C//DTD SVG 1.1//EN" "http://www.w3.org/Graphics/SVG/1.1/DTD/svg11.dtd">
<svg version="1.1" xmlns="http://www.w3.org/2000/svg" xmlns:xlink="http://www.w3.org/1999/xlink" x="0px" y="0px" viewBox="0 0 1000 1000" enable-background="new 0 0 1000 1000" xml:space="preserve">
<metadata> Svg Vector Icons : http://www.onlinewebfonts.com/icon </metadata>
<g><g><path d="M673.9,10h-31.6H357.7h-31.6H10v316.1v31.6v284.5v31.6V990h316.1h31.6h284.5h31.6H990V673.9v-31.6V357.7v-31.6V10H673.9z M642.3,41.6v284.5H357.7V41.6H642.3z M642.3,357.7v284.5H357.7V357.7H642.3z M41.6,41.6h284.5v284.5H41.6V41.6z M41.6,357.7h284.5v284.5H41.6V357.7z M41.6,958.4V673.9h284.5v284.5L41.6,958.4L41.6,958.4z M357.7,958.4V673.9h284.5v284.5L357.7,958.4L357.7,958.4z M958.4,958.4H673.9V673.9h284.5L958.4,958.4L958.4,958.4z M958.4,642.3H673.9V357.7h284.5L958.4,642.3L958.4,642.3z M673.9,326.1V41.6h284.5v284.5L673.9,326.1L673.9,326.1z"/></g><g></g><g></g><g></g><g></g><g></g><g></g><g></g><g></g><g></g><g></g><g></g><g></g><g></g><g></g><g></g></g>
</svg>